<svg width="56" height="56" viewBox="0 0 56 56" fill="none" xmlns="http://www.w3.org/2000/svg">
<g clip-path="url(#clip0_152_62)">
<path d="M55.7736 28.8611C49.4782 40.0098 39.0949 46.6667 27.9999 46.6667C16.9049 46.6667 6.52157 40.0098 0.226238 28.8611C-0.0747617 28.3268 -0.0747617 27.6758 0.226238 27.1414C6.52157 15.9904 16.9049 9.33342 27.9999 9.33342C39.0949 9.33342 49.4782 15.9904 55.7736 27.1391C56.0746 27.6734 56.0746 28.3268 55.7736 28.8611ZM27.9999 18.6668C22.8526 18.6668 18.6666 22.8528 18.6666 28.0001C18.6666 33.1474 22.8526 37.3334 27.9999 37.3334C33.1472 37.3334 37.3332 33.1474 37.3332 28.0001C37.3332 22.8528 33.1472 18.6668 27.9999 18.6668Z" fill="white"/>
<path d="M53.6666 37.3333C52.3786 37.3333 51.3333 38.3787 51.3333 39.6667V49C51.3333 50.2857 50.2856 51.3333 48.9999 51.3333H39.6666C38.3786 51.3333 37.3333 52.3787 37.3333 53.6667C37.3333 54.9547 38.3786 56 39.6666 56H48.9999C52.8593 56 55.9999 52.8593 55.9999 49V39.6667C55.9999 38.3787 54.9546 37.3333 53.6666 37.3333Z" fill="white"/>
<path d="M2.33333 37.3333C1.04533 37.3333 0 38.3787 0 39.6667V49C0 52.8593 3.14067 56 7 56H16.3333C17.6213 56 18.6667 54.9547 18.6667 53.6667C18.6667 52.3787 17.6213 51.3333 16.3333 51.3333H7C5.71433 51.3333 4.66667 50.2857 4.66667 49V39.6667C4.66667 38.3787 3.62133 37.3333 2.33333 37.3333Z" fill="white"/>
<path d="M48.9999 7.62939e-05H39.6666C38.3786 7.62939e-05 37.3333 1.04541 37.3333 2.33341C37.3333 3.62141 38.3786 4.66674 39.6666 4.66674H48.9999C50.2856 4.66674 51.3333 5.71441 51.3333 7.00008V16.3334C51.3333 17.6214 52.3786 18.6667 53.6666 18.6667C54.9546 18.6667 55.9999 17.6214 55.9999 16.3334V7.00008C55.9999 3.14074 52.8593 7.62939e-05 48.9999 7.62939e-05Z" fill="white"/>
<path d="M16.3333 7.62939e-05H7C3.14067 7.62939e-05 0 3.14074 0 7.00008V16.3334C0 17.6214 1.04533 18.6667 2.33333 18.6667C3.62133 18.6667 4.66667 17.6214 4.66667 16.3334V7.00008C4.66667 5.71441 5.71433 4.66674 7 4.66674H16.3333C17.6213 4.66674 18.6667 3.62141 18.6667 2.33341C18.6667 1.04541 17.6213 7.62939e-05 16.3333 7.62939e-05Z" fill="white"/>
</g>
<defs>
<clipPath id="clip0_152_62">
<rect width="56" height="56" fill="white" transform="matrix(1 0 0 -1 0 56)"/>
</clipPath>
</defs>
</svg>
