<svg width="24" height="24" viewBox="0 0 24 24" fill="none" xmlns="http://www.w3.org/2000/svg">
<g clip-path="url(#clip0_152_820)">
<path d="M3.60693 13.0001H9.18417V11.0001H3.60693V1.84611C3.60695 1.75922 3.62801 1.67384 3.66804 1.59838C3.70806 1.52291 3.76568 1.45997 3.83521 1.41576C3.90473 1.37155 3.98377 1.34759 4.06452 1.34625C4.14527 1.34491 4.22496 1.36623 4.29572 1.40811L21.4569 11.5621C21.5297 11.6053 21.5905 11.6687 21.6328 11.7457C21.6752 11.8228 21.6975 11.9106 21.6975 12.0001C21.6975 12.0896 21.6752 12.1774 21.6328 12.2545C21.5905 12.3315 21.5297 12.3949 21.4569 12.4381L4.29572 22.5921C4.22496 22.634 4.14527 22.6553 4.06452 22.654C3.98377 22.6526 3.90473 22.6287 3.83521 22.5844C3.76568 22.5402 3.70806 22.4773 3.66804 22.4018C3.62801 22.3264 3.60695 22.241 3.60693 22.1541V13.0001Z" fill="white"/>
</g>
<defs>
<clipPath id="clip0_152_820">
<rect width="22.3089" height="24" fill="white" transform="translate(0.818359)"/>
</clipPath>
</defs>
</svg>
